{
    "accessors": [
        {
            "bufferView": 0,
            "byteOffset": 0,
            "componentType": 5126,
            "count": 5,
            "max": [
                1.0,
                0.0,
                2.0
            ],
            "min": [
                -1.0,
                0.0,
                -1.0
            ],
            "name": "accessor_buffer_Ngon_0",
            "type": "VEC3"
        },
        {
            "bufferView": 0,
            "byteOffset": 12,
            "componentType": 5126,
            "count": 5,
            "max": [
                0.0,
                1.0,
                0.0
            ],
            "min": [
                0.0,
                1.0,
                0.0
            ],
            "name": "accessor_buffer_Ngon_1",
            "type": "VEC3"
        },
        {
            "bufferView": 1,
            "byteOffset": 0,
            "componentType": 5123,
            "count": 9,
            "max": [
                4
            ],
            "min": [
                0
            ],
            "name": "accessor_buffer_Ngon_2",
            "type": "SCALAR"
        },
        {
            "bufferView": 2,
            "byteOffset": 0,
            "componentType": 5126,
            "count": 24,
            "max": [
                1.0,
                1.0,
                1.0
            ],
            "min": [
                -1.0,
                -1.0,
                -1.0
            ],
            "name": "accessor_buffer_NoMaterial_0",
            "type": "VEC3"
        },
        {
            "bufferView": 2,
            "byteOffset": 12,
            "componentType": 5126,
            "count": 24,
            "max": [
                1.0,
                1.0,
                1.0
            ],
            "min": [
                -1.0,
                -1.0,
                -1.0
            ],
            "name": "accessor_buffer_NoMaterial_1",
            "type": "VEC3"
        },
        {
            "bufferView": 3,
            "byteOffset": 0,
            "componentType": 5123,
            "count": 36,
            "max": [
                23
            ],
            "min": [
                0
            ],
            "name": "accessor_buffer_NoMaterial_2",
            "type": "SCALAR"
        },
        {
            "bufferView": 4,
            "byteOffset": 0,
            "componentType": 5126,
            "count": 4,
            "max": [
                1.0,
                0.0,
                1.0
            ],
            "min": [
                -1.0,
                0.0,
                -1.0
            ],
            "name": "accessor_buffer_Quad_0",
            "type": "VEC3"
        },
        {
            "bufferView": 4,
            "byteOffset": 12,
            "componentType": 5126,
            "count": 4,
            "max": [
                0.0,
                1.0,
                0.0
            ],
            "min": [
                0.0,
                1.0,
                0.0
            ],
            "name": "accessor_buffer_Quad_1",
            "type": "VEC3"
        },
        {
            "bufferView": 4,
            "byteOffset": 24,
            "componentType": 5126,
            "count": 4,
            "max": [
                0.9999000430107117,
                0.9999000199895818
            ],
            "min": [
                9.998001041822135e-05,
                9.995698928833008e-05
            ],
            "name": "accessor_buffer_Quad_2",
            "type": "VEC2"
        },
        {
            "bufferView": 4,
            "byteOffset": 32,
            "componentType": 5126,
            "count": 4,
            "max": [
                1.0,
                1.0,
                1.0
            ],
            "min": [
                1.0,
                1.0,
                1.0
            ],
            "name": "accessor_buffer_Quad_3",
            "type": "VEC3"
        },
        {
            "bufferView": 5,
            "byteOffset": 0,
            "componentType": 5123,
            "count": 6,
            "max": [
                3
            ],
            "min": [
                0
            ],
            "name": "accessor_buffer_Quad_4",
            "type": "SCALAR"
        },
        {
            "bufferView": 6,
            "byteOffset": 0,
            "componentType": 5126,
            "count": 3,
            "max": [
                1.0,
                0.0,
                1.0
            ],
            "min": [
                -1.0,
                0.0,
                -1.0
            ],
            "name": "accessor_buffer_Triangle_0",
            "type": "VEC3"
        },
        {
            "bufferView": 6,
            "byteOffset": 12,
            "componentType": 5126,
            "count": 3,
            "max": [
                0.0,
                1.0,
                0.0
            ],
            "min": [
                0.0,
                1.0,
                0.0
            ],
            "name": "accessor_buffer_Triangle_1",
            "type": "VEC3"
        },
        {
            "bufferView": 6,
            "byteOffset": 24,
            "componentType": 5126,
            "count": 3,
            "max": [
                1.0,
                1.0
            ],
            "min": [
                0.0,
                0.0
            ],
            "name": "accessor_buffer_Triangle_2",
            "type": "VEC2"
        },
        {
            "bufferView": 6,
            "byteOffset": 32,
            "componentType": 5126,
            "count": 3,
            "max": [
                1.0,
                1.0,
                1.0
            ],
            "min": [
                1.0,
                0.0,
                0.0
            ],
            "name": "accessor_buffer_Triangle_3",
            "type": "VEC3"
        },
        {
            "bufferView": 7,
            "byteOffset": 0,
            "componentType": 5123,
            "count": 3,
            "max": [
                2
            ],
            "min": [
                0
            ],
            "name": "accessor_buffer_Triangle_4",
            "type": "SCALAR"
        },
        {
            "bufferView": 8,
            "byteOffset": 0,
            "componentType": 5126,
            "count": 4,
            "max": [
                1.0,
                0.0,
                1.0
            ],
            "min": [
                -1.0,
                0.0,
                -1.0
            ],
            "name": "accessor_buffer_TwoMaterials_0",
            "type": "VEC3"
        },
        {
            "bufferView": 8,
            "byteOffset": 12,
            "componentType": 5126,
            "count": 4,
            "max": [
                0.0,
                1.0,
                0.0
            ],
            "min": [
                0.0,
                1.0,
                0.0
            ],
            "name": "accessor_buffer_TwoMaterials_1",
            "type": "VEC3"
        },
        {
            "bufferView": 9,
            "byteOffset": 0,
            "componentType": 5123,
            "count": 3,
            "max": [
                2
            ],
            "min": [
                0
            ],
            "name": "accessor_buffer_TwoMaterials_2",
            "type": "SCALAR"
        },
        {
            "bufferView": 10,
            "byteOffset": 0,
            "componentType": 5123,
            "count": 3,
            "max": [
                3
            ],
            "min": [
                0
            ],
            "name": "accessor_buffer_TwoMaterials_3",
            "type": "SCALAR"
        }
    ],
    "asset": {
        "copyright": "",
        "generator": "blendergltf v1.2.0",
        "version": "2.0"
    },
    "bufferViews": [
        {
            "buffer": 0,
            "byteLength": 120,
            "byteOffset": 0,
            "byteStride": 24,
            "name": "bufferView_buffer_Ngon_0",
            "target": 34962
        },
        {
            "buffer": 0,
            "byteLength": 20,
            "byteOffset": 120,
            "name": "bufferView_buffer_Ngon_1",
            "target": 34963
        },
        {
            "buffer": 1,
            "byteLength": 576,
            "byteOffset": 0,
            "byteStride": 24,
            "name": "bufferView_buffer_NoMaterial_0",
            "target": 34962
        },
        {
            "buffer": 1,
            "byteLength": 76,
            "byteOffset": 576,
            "name": "bufferView_buffer_NoMaterial_1",
            "target": 34963
        },
        {
            "buffer": 2,
            "byteLength": 176,
            "byteOffset": 0,
            "byteStride": 44,
            "name": "bufferView_buffer_Quad_0",
            "target": 34962
        },
        {
            "buffer": 2,
            "byteLength": 16,
            "byteOffset": 176,
            "name": "bufferView_buffer_Quad_1",
            "target": 34963
        },
        {
            "buffer": 3,
            "byteLength": 132,
            "byteOffset": 0,
            "byteStride": 44,
            "name": "bufferView_buffer_Triangle_0",
            "target": 34962
        },
        {
            "buffer": 3,
            "byteLength": 8,
            "byteOffset": 132,
            "name": "bufferView_buffer_Triangle_1",
            "target": 34963
        },
        {
            "buffer": 4,
            "byteLength": 96,
            "byteOffset": 0,
            "byteStride": 24,
            "name": "bufferView_buffer_TwoMaterials_0",
            "target": 34962
        },
        {
            "buffer": 4,
            "byteLength": 8,
            "byteOffset": 96,
            "name": "bufferView_buffer_TwoMaterials_1",
            "target": 34963
        },
        {
            "buffer": 4,
            "byteLength": 8,
            "byteOffset": 104,
            "name": "bufferView_buffer_TwoMaterials_2",
            "target": 34963
        }
    ],
    "buffers": [
        {
            "byteLength": 140,
            "name": "buffer_Ngon",
            "uri": "data:application/octet-stream;base64,"
        },
        {
            "byteLength": 652,
            "name": "buffer_NoMaterial",
            "uri": "data:application/octet-stream;base64,"
        },
        {
            "byteLength": 192,
            "name": "buffer_Quad",
            "uri": "data:application/octet-stream;base64,"
        },
        {
            "byteLength": 140,
            "name": "buffer_Triangle",
            "uri": "data:application/octet-stream;base64,"
        },
        {
            "byteLength": 112,
            "name": "buffer_TwoMaterials",
            "uri": "data:application/octet-stream;base64,"
        }
    ],
    "materials": [
        {
            "alphaMode": "OPAQUE",
            "doubleSided": false,
            "emissiveFactor": [
                0.0,
                0.0,
                0.0
            ],
            "name": "Material",
            "pbrMetallicRoughness": {
                "baseColorFactor": [
                    0.64000004529953,
                    0.64000004529953,
                    0.64000004529953,
                    1.0
                ],
                "metallicFactor": 0.0,
                "roughnessFactor": 1.0
            }
        },
        {
            "alphaMode": "OPAQUE",
            "doubleSided": false,
            "emissiveFactor": [
                0.0,
                0.0,
                0.0
            ],
            "name": "Material.001",
            "pbrMetallicRoughness": {
                "baseColorFactor": [
                    0.800000011920929,
                    0.0,
                    0.0,
                    1.0
                ],
                "metallicFactor": 0.0,
                "roughnessFactor": 1.0
            }
        }
    ],
    "meshes": [
        {
            "name": "Ngon",
            "primitives": [
                {
                    "attributes": {
                        "NORMAL": 1,
                        "POSITION": 0
                    },
                    "indices": 2,
                    "material": 0,
                    "mode": 4
                }
            ]
        },
        {
            "name": "NoMaterial",
            "primitives": [
                {
                    "attributes": {
                        "NORMAL": 4,
                        "POSITION": 3
                    },
                    "indices": 5,
                    "mode": 4
                }
            ]
        },
        {
            "name": "Quad",
            "primitives": [
                {
                    "attributes": {
                        "COLOR_0": 9,
                        "NORMAL": 7,
                        "POSITION": 6,
                        "TEXCOORD_0": 8
                    },
                    "indices": 10,
                    "material": 0,
                    "mode": 4
                }
            ]
        },
        {
            "name": "Triangle",
            "primitives": [
                {
                    "attributes": {
                        "COLOR_0": 14,
                        "NORMAL": 12,
                        "POSITION": 11,
                        "TEXCOORD_0": 13
                    },
                    "indices": 15,
                    "material": 0,
                    "mode": 4
                }
            ]
        },
        {
            "name": "TwoMaterials",
            "primitives": [
                {
                    "attributes": {
                        "NORMAL": 17,
                        "POSITION": 16
                    },
                    "indices": 18,
                    "material": 0,
                    "mode": 4
                },
                {
                    "attributes": {
                        "NORMAL": 17,
                        "POSITION": 16
                    },
                    "indices": 19,
                    "material": 1,
                    "mode": 4
                }
            ]
        }
    ],
    "nodes": [
        {
            "mesh": 0,
            "name": "Ngon",
            "rotation": [
                0.0,
                0.0,
                0.0,
                1.0
            ],
            "scale": [
                1.0,
                1.0,
                1.0
            ],
            "translation": [
                2.0,
                0.0,
                2.0
            ]
        },
        {
            "mesh": 1,
            "name": "NoMaterial",
            "rotation": [
                0.0,
                0.0,
                0.0,
                1.0
            ],
            "scale": [
                1.0,
                1.0,
                1.0
            ],
            "translation": [
                -6.0,
                0.0,
                2.0
            ]
        },
        {
            "mesh": 2,
            "name": "Quad",
            "rotation": [
                0.0,
                0.0,
                0.0,
                1.0
            ],
            "scale": [
                1.0,
                1.0,
                1.0
            ],
            "translation": [
                -2.0,
                0.0,
                2.0
            ]
        },
        {
            "name": "Sun",
            "rotation": [
                0.0,
                0.7071068286895752,
                0.7071068286895752,
                0.0
            ],
            "scale": [
                1.0,
                1.0,
                1.0
            ],
            "translation": [
                0.0,
                0.0,
                0.0
            ]
        },
        {
            "mesh": 3,
            "name": "Triangle",
            "rotation": [
                0.0,
                0.0,
                0.0,
                1.0
            ],
            "scale": [
                1.0,
                1.0,
                1.0
            ],
            "translation": [
                2.0,
                0.0,
                -2.0
            ]
        },
        {
            "mesh": 4,
            "name": "TwoMaterials",
            "rotation": [
                0.0,
                0.0,
                0.0,
                1.0
            ],
            "scale": [
                1.0,
                1.0,
                1.0
            ],
            "translation": [
                -2.0,
                0.0,
                -2.0
            ]
        }
    ],
    "scene": 0,
    "scenes": [
        {
            "extras": {
                "background_color": [
                    0.05087608844041824,
                    0.05087608844041824,
                    0.05087608844041824
                ],
                "frames_per_second": 24
            },
            "name": "Scene",
            "nodes": [
                1,
                3,
                5,
                0,
                2,
                4
            ]
        }
    ]
}
