{
    "accessors": [
        {
            "bufferView": 0,
            "byteOffset": 0,
            "componentType": 5126,
            "count": 24,
            "max": [
                1.0,
                1.0,
                1.0
            ],
            "min": [
                -1.0,
                -1.0,
                -1.0
            ],
            "name": "accessor_buffer_ShapeKey.001_POSITION_0",
            "type": "VEC3"
        },
        {
            "bufferView": 1,
            "byteOffset": 0,
            "componentType": 5126,
            "count": 24,
            "max": [
                1.0,
                1.0,
                1.0
            ],
            "min": [
                -1.0,
                -1.0,
                -1.0
            ],
            "name": "accessor_buffer_ShapeKey.001_NORMAL_0",
            "type": "VEC3"
        },
        {
            "bufferView": 2,
            "byteOffset": 0,
            "componentType": 5123,
            "count": 36,
            "max": [
                23
            ],
            "min": [
                0
            ],
            "name": "accessor_buffer_ShapeKey.001_0",
            "type": "SCALAR"
        },
        {
            "bufferView": 3,
            "byteOffset": 0,
            "componentType": 5126,
            "count": 24,
            "max": [
                0.0,
                1.0,
                0.0
            ],
            "min": [
                0.0,
                0.0,
                0.0
            ],
            "name": "accessor_buffer_ShapeKey.002_POSITION_0",
            "type": "VEC3"
        },
        {
            "bufferView": 4,
            "byteOffset": 0,
            "componentType": 5126,
            "count": 24,
            "max": [
                0.2357022762298584,
                0.0,
                0.0
            ],
            "min": [
                0.0,
                -0.057190895080566406,
                -0.2357022762298584
            ],
            "name": "accessor_buffer_ShapeKey.002_NORMAL_0",
            "type": "VEC3"
        }
    ],
    "asset": {
        "copyright": "",
        "generator": "blendergltf v1.2.0",
        "version": "2.0"
    },
    "bufferViews": [
        {
            "buffer": 0,
            "byteLength": 288,
            "byteOffset": 0,
            "byteStride": 12,
            "name": "bufferView_buffer_ShapeKey.001_POSITION_0",
            "target": 34962
        },
        {
            "buffer": 0,
            "byteLength": 288,
            "byteOffset": 288,
            "byteStride": 12,
            "name": "bufferView_buffer_ShapeKey.001_NORMAL_0",
            "target": 34962
        },
        {
            "buffer": 0,
            "byteLength": 76,
            "byteOffset": 576,
            "name": "bufferView_buffer_ShapeKey.001_0",
            "target": 34963
        },
        {
            "buffer": 0,
            "byteLength": 288,
            "byteOffset": 652,
            "byteStride": 12,
            "name": "bufferView_buffer_ShapeKey.002_POSITION_0",
            "target": 34962
        },
        {
            "buffer": 0,
            "byteLength": 288,
            "byteOffset": 940,
            "byteStride": 12,
            "name": "bufferView_buffer_ShapeKey.002_NORMAL_0",
            "target": 34962
        }
    ],
    "buffers": [
        {
            "byteLength": 1228,
            "name": "buffer_shap_keys",
            "uri": "data:application/octet-stream;base64,"
        }
    ],
    "meshes": [
        {
            "name": "ShapeKey.001",
            "primitives": [
                {
                    "attributes": {
                        "NORMAL": 1,
                        "POSITION": 0
                    },
                    "indices": 2,
                    "mode": 4,
                    "targets": [
                        {
                            "NORMAL": 4,
                            "POSITION": 3
                        }
                    ]
                }
            ],
            "weights": [
                0.4047619104385376
            ]
        }
    ],
    "nodes": [
        {
            "mesh": 0,
            "name": "ShapeKey",
            "rotation": [
                0.0,
                0.0,
                0.0,
                1.0
            ],
            "scale": [
                1.0,
                1.0,
                1.0
            ],
            "translation": [
                2.0,
                0.0,
                2.0
            ]
        },
        {
            "name": "Sun",
            "rotation": [
                0.0,
                0.7071068286895752,
                0.7071068286895752,
                0.0
            ],
            "scale": [
                1.0,
                1.0,
                1.0
            ],
            "translation": [
                0.0,
                0.0,
                0.0
            ]
        }
    ],
    "scene": 0,
    "scenes": [
        {
            "extras": {
                "background_color": [
                    0.05087608844041824,
                    0.05087608844041824,
                    0.05087608844041824
                ],
                "frames_per_second": 24
            },
            "name": "Scene",
            "nodes": [
                1,
                0
            ]
        }
    ]
}
